<?xml version="1.0" encoding="UTF-8" standalone="no"?>
<svg
   width="480.5957"
   zoomAndPan="magnify"
   viewBox="0 0 360.44678 70.46094"
   height="93.947922"
   preserveAspectRatio="xMidYMid"
   version="1.0"
   id="svg56"
   sodipodi:docname="logo.svg"
   inkscape:export-filename="logo.png"
   inkscape:export-xdpi="96"
   inkscape:export-ydpi="96"
   inkscape:version="1.3 (0e150ed, 2023-07-21)"
   xmlns:inkscape="http://www.inkscape.org/namespaces/inkscape"
   xmlns:sodipodi="http://sodipodi.sourceforge.net/DTD/sodipodi-0.dtd"
   xmlns="http://www.w3.org/2000/svg"
   xmlns:svg="http://www.w3.org/2000/svg">
  <sodipodi:namedview
     id="namedview56"
     pagecolor="#ffffff"
     bordercolor="#000000"
     borderopacity="0.25"
     inkscape:showpageshadow="2"
     inkscape:pageopacity="0.0"
     inkscape:pagecheckerboard="0"
     inkscape:deskcolor="#d1d1d1"
     inkscape:zoom="1.468"
     inkscape:cx="242.16621"
     inkscape:cy="46.662125"
     inkscape:window-width="1504"
     inkscape:window-height="1212"
     inkscape:window-x="790"
     inkscape:window-y="257"
     inkscape:window-maximized="0"
     inkscape:current-layer="svg56" />
  <defs
     id="defs2">
    <g
       id="g1" />
    <clipPath
       id="20b2027b52">
      <path
         d="M 5.742188,183 H 50 v 39.61719 H 5.742188 Z m 0,0"
         clip-rule="nonzero"
         id="path1" />
    </clipPath>
    <clipPath
       id="4669548b15">
      <path
         d="m 26,152.15625 h 88.49219 v 70.46094 H 26 Z m 0,0"
         clip-rule="nonzero"
         id="path2" />
    </clipPath>
  </defs>
  <g
     id="g57"
     transform="translate(-5.785156,-152.15625)">
    <g
       fill="#112442"
       fill-opacity="1"
       id="g5">
      <g
         transform="translate(121.45546,187.23397)"
         id="g4">
        <g
           id="g3">
          <path
             d="m 16.457031,0.585938 c 7.738281,0 13.679688,-4.496094 14.308594,-10.90625 l -7,-0.78125 c -0.625,3.167968 -3.632813,5.511718 -7.074219,5.511718 -4.652344,0 -7.894531,-3.363281 -7.894531,-8.367187 0,-5.039063 3.203125,-8.363281 7.894531,-8.363281 3.441406,0 6.410156,2.382812 7.074219,5.589843 L 30.6875,-17.472656 C 29.902344,-23.960938 24,-28.496094 16.457031,-28.496094 7.621094,-28.496094 1.25,-22.632812 1.25,-13.957031 c 0,8.640625 6.371094,14.542969 15.207031,14.542969 z m 0,0"
             id="path3" />
        </g>
      </g>
    </g>
    <g
       fill="#112442"
       fill-opacity="1"
       id="g8">
      <g
         transform="translate(153.50278,187.23397)"
         id="g7">
        <g
           id="g6">
          <path
             d="m 1.914062,0 h 6.6875 v -11.179688 c 0,-2.226562 1.484376,-3.832031 3.4375,-3.832031 1.996094,0 3.285157,1.605469 3.285157,3.910157 V 0 h 6.683593 v -12.46875 c 0,-4.730469 -2.894531,-8.132812 -7.074218,-8.132812 -2.582032,0 -4.457032,1.253906 -5.980469,3.753906 H 8.601562 v -12.234375 h -6.6875 z m 0,0"
             id="path5" />
        </g>
      </g>
    </g>
    <g
       fill="#112442"
       fill-opacity="1"
       id="g11">
      <g
         transform="translate(177.14745,187.23397)"
         id="g10">
        <g
           id="g9">
          <path
             d="m 12.195312,0.507812 c 5.121094,0 9.382813,-2.539062 10.359376,-6.410156 l -5.863282,-0.820312 c -0.585937,1.5625 -2.148437,2.695312 -4.144531,2.695312 -2.578125,0 -4.339844,-1.679687 -4.730469,-4.21875 H 23.179688 C 23.21875,-8.5625 23.257812,-9.5 23.257812,-9.96875 c 0,-6.488281 -4.339843,-10.632812 -10.984374,-10.632812 -6.644532,0 -11.375,4.105468 -11.375,10.515624 0,6.449219 4.613281,10.59375 11.296874,10.59375 z M 7.738281,-11.726562 c 0.351563,-2.621094 1.996094,-4.339844 4.417969,-4.339844 2.464844,0 4.261719,1.953125 4.378906,4.339844 z m 0,0"
             id="path8" />
        </g>
      </g>
    </g>
    <g
       fill="#112442"
       fill-opacity="1"
       id="g14">
      <g
         transform="translate(201.26111,187.23397)"
         id="g13">
        <g
           id="g12">
          <path
             d="m 12.117188,0.507812 c 5.628906,0 9.734374,-2.890624 10.4375,-7.816406 l -6.175782,-0.78125 c -0.429687,1.914063 -2.1875,3.242188 -4.183594,3.242188 -2.65625,0 -4.574218,-2.1875 -4.574218,-5.199219 0,-3.007813 1.917968,-5.238281 4.574218,-5.238281 1.957032,0 3.753907,1.410156 4.183594,3.363281 l 6.175782,-0.78125 c -0.664063,-4.964844 -4.808594,-7.898437 -10.4375,-7.898437 -6.722657,0 -11.179688,4.066406 -11.21875,10.554687 0.039062,6.410156 4.613281,10.554687 11.21875,10.554687 z m 0,0"
             id="path11" />
        </g>
      </g>
    </g>
    <g
       fill="#112442"
       fill-opacity="1"
       id="g17">
      <g
         transform="translate(224.71037,187.23397)"
         id="g16">
        <g
           id="g15">
          <path
             d="M 1.875,0 H 8.5625 V -8.207031 H 8.914062 L 14.777344,0 h 7.894531 l -7.972656,-10.4375 7.816406,-9.65625 H 14.660156 L 8.914062,-12.625 H 8.5625 V -29.082031 H 1.875 Z m 0,0"
             id="path14" />
        </g>
      </g>
    </g>
    <g
       fill="#112442"
       fill-opacity="1"
       id="g20">
      <g
         transform="translate(247.53432,187.23397)"
         id="g19">
        <g
           id="g18">
          <path
             d="m 10.554688,0.664062 c 6.136718,0 10.164062,-2.695312 10.164062,-7.074218 0,-4.769532 -4.574219,-5.511719 -8.25,-5.980469 -2.773438,-0.3125 -5.238281,-0.507813 -5.238281,-2.347656 0,-1.210938 1.253906,-2.03125 3.128906,-2.03125 2.109375,0 3.597656,1.09375 3.597656,2.734375 h 5.902344 c 0.03906,-4.101563 -4.066406,-6.722656 -9.539063,-6.722656 -5.589843,0 -9.265624,2.660156 -9.265624,6.683593 0,5.511719 5.160156,5.789063 8.71875,6.140625 2.304687,0.273438 4.261718,0.46875 4.261718,2.382813 0,1.328125 -1.449218,2.226562 -3.363281,2.226562 -2.464844,0 -4.144531,-1.289062 -4.144531,-3.125 H 0.898438 c 0,4.300781 3.792968,7.113281 9.65625,7.113281 z m 0,0"
             id="path17" />
        </g>
      </g>
    </g>
    <g
       fill="#112442"
       fill-opacity="1"
       id="g23">
      <g
         transform="translate(269.14673,187.23397)"
         id="g22">
        <g
           id="g21">
          <path
             d="m 10.046875,0.429688 c 1.25,0 3.007813,-0.234376 4.261719,-0.703126 v -4.613281 c -0.628906,0.15625 -1.449219,0.234375 -2.035156,0.234375 -1.484376,0 -2.460938,-1.054687 -2.460938,-2.695312 v -7.976563 h 4.378906 V -20.09375 H 9.8125 v -6.175781 H 4.496094 L 3.363281,-20.09375 H 0.429688 v 4.769531 h 2.660156 v 8.289063 c 0,4.457031 2.773437,7.464844 6.957031,7.464844 z m 0,0"
             id="path20" />
        </g>
      </g>
    </g>
    <g
       fill="#112442"
       fill-opacity="1"
       id="g26">
      <g
         transform="translate(284.19334,187.23397)"
         id="g25">
        <g
           id="g24">
          <path
             d="m 7.347656,0.507812 c 2.777344,0 5.394532,-1.054687 6.570313,-3.164062 h 0.351562 V 0 h 6.722657 v -13.132812 c 0,-4.457032 -3.871094,-7.390626 -9.617188,-7.390626 -5.824219,0 -9.65625,2.933594 -9.65625,7.351563 h 6.410156 c 0,-1.957031 1.371094,-3.207031 3.167969,-3.207031 1.796875,0 2.972656,1.25 2.972656,2.972656 v 1.015625 l -3.832031,0.585937 c -6.566406,0.976563 -9.617188,2.929688 -9.617188,6.761719 0,3.558594 2.699219,5.550781 6.527344,5.550781 z m 2.738282,-3.988281 c -1.761719,0 -2.816407,-0.898437 -2.816407,-2.226562 0,-1.367188 1.015625,-2.226563 3.519531,-2.660157 l 3.480469,-0.585937 v 1.371094 c 0,2.34375 -1.683593,4.101562 -4.183593,4.101562 z m 0,0"
             id="path23" />
        </g>
      </g>
    </g>
    <g
       fill="#112442"
       fill-opacity="1"
       id="g29">
      <g
         transform="translate(306.82188,187.23397)"
         id="g28">
        <g
           id="g27">
          <path
             d="m 10.046875,0.429688 c 1.25,0 3.007813,-0.234376 4.261719,-0.703126 v -4.613281 c -0.628906,0.15625 -1.449219,0.234375 -2.035156,0.234375 -1.484376,0 -2.460938,-1.054687 -2.460938,-2.695312 v -7.976563 h 4.378906 V -20.09375 H 9.8125 v -6.175781 H 4.496094 L 3.363281,-20.09375 H 0.429688 v 4.769531 h 2.660156 v 8.289063 c 0,4.457031 2.773437,7.464844 6.957031,7.464844 z m 0,0"
             id="path26" />
        </g>
      </g>
    </g>
    <g
       fill="#112442"
       fill-opacity="1"
       id="g32">
      <g
         transform="translate(321.8685,187.23397)"
         id="g31">
        <g
           id="g30">
          <path
             d="m 8.71875,0.507812 c 2.578125,0 4.453125,-1.25 5.980469,-3.792968 h 0.351562 V 0 h 6.722657 v -20.09375 h -6.722657 v 11.179688 c 0,2.230468 -1.488281,3.832031 -3.441406,3.832031 -1.992187,0 -3.242187,-1.640625 -3.242187,-3.910157 V -20.09375 H 1.640625 v 12.433594 c 0,4.726562 2.894531,8.167968 7.078125,8.167968 z m 0,0"
             id="path29" />
        </g>
      </g>
    </g>
    <g
       fill="#112442"
       fill-opacity="1"
       id="g35">
      <g
         transform="translate(345.51318,187.23397)"
         id="g34">
        <g
           id="g33">
          <path
             d="m 10.554688,0.664062 c 6.136718,0 10.164062,-2.695312 10.164062,-7.074218 0,-4.769532 -4.574219,-5.511719 -8.25,-5.980469 -2.773438,-0.3125 -5.238281,-0.507813 -5.238281,-2.347656 0,-1.210938 1.253906,-2.03125 3.128906,-2.03125 2.109375,0 3.597656,1.09375 3.597656,2.734375 h 5.902344 c 0.03906,-4.101563 -4.066406,-6.722656 -9.539063,-6.722656 -5.589843,0 -9.265624,2.660156 -9.265624,6.683593 0,5.511719 5.160156,5.789063 8.71875,6.140625 2.304687,0.273438 4.261718,0.46875 4.261718,2.382813 0,1.328125 -1.449218,2.226562 -3.363281,2.226562 -2.464844,0 -4.144531,-1.289062 -4.144531,-3.125 H 0.898438 c 0,4.300781 3.792968,7.113281 9.65625,7.113281 z m 0,0"
             id="path32" />
        </g>
      </g>
    </g>
    <g
       fill="#112442"
       fill-opacity="1"
       id="g38">
      <g
         transform="translate(275.14648,212.97515)"
         id="g37">
        <g
           id="g36">
          <path
             d="m 9.25,0.386719 c 5.207031,0 8.605469,-3.679688 8.175781,-9.011719 H 7.789062 v 2.363281 h 5.65625 c -0.171874,1.894531 -1.871093,3.25 -4.042968,3.25 -2.648438,0 -4.5625,-1.957031 -4.5625,-4.667969 0,-2.730468 1.851562,-4.601562 4.410156,-4.601562 1.742188,0 3.292969,1.007812 3.65625,2.429688 l 3.828125,-0.667969 c -0.644531,-2.988281 -3.742187,-5.164063 -7.484375,-5.164063 -4.96875,0 -8.5625,3.226563 -8.5625,8.003906 0,4.753907 3.59375,8.066407 8.5625,8.066407 z m 0,0"
             id="path35" />
        </g>
      </g>
    </g>
    <g
       fill="#112442"
       fill-opacity="1"
       id="g41">
      <g
         transform="translate(293.38024,212.97515)"
         id="g40">
        <g
           id="g39">
          <path
             d="m 9.25,0.324219 c 5.097656,0 8.582031,-3.121094 8.582031,-8.003907 0,-4.882812 -3.484375,-8.003906 -8.582031,-8.003906 -5.097656,0 -8.5625,3.121094 -8.5625,8.003906 0,4.882813 3.464844,8.003907 8.5625,8.003907 z m 0,-3.398438 c -2.601562,0 -4.410156,-1.851562 -4.410156,-4.605469 0,-2.753906 1.808594,-4.601562 4.410156,-4.601562 2.601562,0 4.410156,1.847656 4.410156,4.601562 0,2.753907 -1.808594,4.605469 -4.410156,4.605469 z m 0,0"
             id="path38" />
        </g>
      </g>
    </g>
    <g
       fill="#112442"
       fill-opacity="1"
       id="g44">
      <g
         transform="translate(311.97953,212.97515)"
         id="g43">
        <g
           id="g42">
          <path
             d="m 4.863281,0 h 6.472657 l 4.710937,-15.359375 H 11.746094 L 8.195312,-3.097656 H 8.003906 L 4.429688,-15.359375 H 0.171875 Z m 0,0"
             id="path41" />
        </g>
      </g>
    </g>
    <g
       fill="#112442"
       fill-opacity="1"
       id="g47">
      <g
         transform="translate(328.2566,212.97515)"
         id="g46">
        <g
           id="g45">
          <path
             d="m 2.582031,0.214844 c 1.226563,0 2.085938,-0.839844 2.085938,-2.023438 0,-1.160156 -0.859375,-2 -2.085938,-2 -1.207031,0 -2.085937,0.839844 -2.085937,2 0,1.183594 0.878906,2.023438 2.085937,2.023438 z m 0,0"
             id="path44" />
        </g>
      </g>
    </g>
    <g
       fill="#112442"
       fill-opacity="1"
       id="g50">
      <g
         transform="translate(333.50315,212.97515)"
         id="g49">
        <g
           id="g48">
          <path
             d="m 1.203125,0 h 8.132813 c 3.550781,0 5.722656,-1.484375 5.722656,-4.109375 0,-1.890625 -1.207032,-3.226563 -2.839844,-3.65625 v -0.195313 c 1.375,-0.429687 2.410156,-1.589843 2.410156,-3.246093 0,-2.515625 -2.085937,-4.152344 -5.636718,-4.152344 H 1.203125 Z m 4.152344,-9.097656 v -3.3125 h 2.839843 c 1.25,0 2.128907,0.664062 2.128907,1.65625 0,0.988281 -0.878907,1.65625 -2.128907,1.65625 z m 0,6.152344 v -3.660157 h 3.078125 c 1.332031,0 2.320312,0.777344 2.320312,1.828125 0,1.054688 -0.988281,1.832032 -2.320312,1.832032 z m 0,0"
             id="path47" />
        </g>
      </g>
    </g>
    <g
       fill="#112442"
       fill-opacity="1"
       id="g53">
      <g
         transform="translate(349.24267,212.97515)"
         id="g52">
        <g
           id="g51">
          <path
             d="M 1.203125,0 H 5.378906 V -5.292969 H 6.820312 L 10.796875,0 h 4.582031 l -4.625,-5.59375 0.324219,-0.042969 C 13.402344,-6 15.035156,-7.742188 15.035156,-10.238281 c 0,-3.078125 -2.429687,-5.121094 -6.171875,-5.121094 H 1.203125 Z m 4.175781,-7.9375 v -4.472656 h 2.6875 c 1.636719,0 2.820313,0.816406 2.820313,2.234375 0,1.398437 -1.183594,2.238281 -2.820313,2.238281 z m 0,0"
             id="path50" />
        </g>
      </g>
    </g>
    <path
       fill="#639ac6"
       d="m 103.67969,193.12109 c 0,1.75391 -1.42578,3.17188 -3.19141,3.17188 H 87.109375 c -1.765625,0 -3.191406,-1.41797 -3.191406,-3.17188 0,-1.7539 1.425781,-3.17578 3.191406,-3.17578 h 13.378905 c 1.76563,0 3.19141,1.42188 3.19141,3.17578"
       fill-opacity="1"
       fill-rule="nonzero"
       id="path53" />
    <path
       fill="#639ac6"
       d="m 75.796875,201.13281 h 6.117187 c 1.761719,0 3.191407,1.42188 3.191407,3.17578 0,1.75391 -1.429688,3.17188 -3.191407,3.17188 h -6.117187 c -1.761719,0 -3.191406,-1.41797 -3.191406,-3.17188 0,-1.7539 1.429687,-3.17578 3.191406,-3.17578"
       fill-opacity="1"
       fill-rule="nonzero"
       id="path54" />
    <g
       clip-path="url(#20b2027b52)"
       id="g55">
      <path
         fill="#2c4874"
         d="M 49.445312,222.61719 H 26.394531 L 5.785156,183.90234 h 23.046875 l 20.613281,38.71485"
         fill-opacity="1"
         fill-rule="nonzero"
         id="path55" />
    </g>
    <g
       clip-path="url(#4669548b15)"
       id="g56">
      <path
         fill="#639ac6"
         d="m 114.41406,181.875 c 0.0352,1.78125 -1.40625,3.23437 -3.1914,3.23437 H 70.882812 c -0.902343,0 -1.726562,0.49219 -2.148437,1.28516 -0.859375,1.60938 0.3125,3.55078 2.148437,3.55078 h 7.011719 c 1.757813,0 3.261719,1.36719 3.296875,3.11719 0.03125,1.78125 -1.410156,3.23047 -3.191406,3.23047 H 64.925781 c -0.902343,0 -1.730469,0.49609 -2.148437,1.28906 -0.859375,1.61328 0.316406,3.55078 2.148437,3.55078 h 2.925781 c 1.691407,0 3.160157,1.26953 3.277344,2.94531 0.07031,0.96875 -0.296875,1.85157 -0.925781,2.47657 -0.578125,0.57422 -1.375,0.92578 -2.253906,0.92578 H 58.96875 c -0.898438,0 -1.726562,0.49609 -2.148438,1.28906 l -7.375,13.84766 H 26.394531 L 37.921875,200.96875 41.070312,195.05469 47.1875,183.5625 63.933594,152.11328 H 86.984375 L 74.6875,175.21094 c -0.859375,1.60937 0.316406,3.54687 2.148438,3.54687 h 34.285152 c 1.75391,0 3.26172,1.36719 3.29297,3.11719"
         fill-opacity="1"
         fill-rule="nonzero"
         id="path56" />
    </g>
  </g>
</svg>
