<?xml version="1.0" encoding="UTF-8" standalone="no"?>
<svg
   width="500"
   zoomAndPan="magnify"
   viewBox="0 0 375 374.999991"
   height="500"
   preserveAspectRatio="xMidYMid meet"
   version="1.0"
   id="svg56"
   sodipodi:docname="opengraph_image.svg"
   inkscape:version="1.3 (0e150ed, 2023-07-21)"
   xmlns:inkscape="http://www.inkscape.org/namespaces/inkscape"
   xmlns:sodipodi="http://sodipodi.sourceforge.net/DTD/sodipodi-0.dtd"
   xmlns="http://www.w3.org/2000/svg"
   xmlns:svg="http://www.w3.org/2000/svg">
  <sodipodi:namedview
     id="namedview56"
     pagecolor="#ffffff"
     bordercolor="#000000"
     borderopacity="0.25"
     inkscape:showpageshadow="2"
     inkscape:pageopacity="0.0"
     inkscape:pagecheckerboard="0"
     inkscape:deskcolor="#d1d1d1"
     inkscape:zoom="1.468"
     inkscape:cx="249.6594"
     inkscape:cy="249.6594"
     inkscape:window-width="1504"
     inkscape:window-height="1212"
     inkscape:window-x="699"
     inkscape:window-y="178"
     inkscape:window-maximized="0"
     inkscape:current-layer="svg56" />
  <defs
     id="defs2">
    <g
       id="g1" />
    <clipPath
       id="367b8939c7">
      <path
         d="M 114.554688 142 L 174 142 L 174 194.78125 L 114.554688 194.78125 Z M 114.554688 142 "
         clip-rule="nonzero"
         id="path1" />
    </clipPath>
    <clipPath
       id="104f319328">
      <path
         d="M 142 99.585938 L 260.804688 99.585938 L 260.804688 194.78125 L 142 194.78125 Z M 142 99.585938 "
         clip-rule="nonzero"
         id="path2" />
    </clipPath>
  </defs>
  <g
     fill="#112442"
     fill-opacity="1"
     id="g5">
    <g
       transform="translate(64.659917, 248.240549)"
       id="g4">
      <g
         id="g3">
        <path
           d="M 16.457031 0.585938 C 24.195312 0.585938 30.136719 -3.910156 30.765625 -10.320312 L 23.765625 -11.101562 C 23.140625 -7.933594 20.132812 -5.589844 16.691406 -5.589844 C 12.039062 -5.589844 8.796875 -8.953125 8.796875 -13.957031 C 8.796875 -18.996094 12 -22.320312 16.691406 -22.320312 C 20.132812 -22.320312 23.101562 -19.9375 23.765625 -16.730469 L 30.6875 -17.472656 C 29.902344 -23.960938 24 -28.496094 16.457031 -28.496094 C 7.621094 -28.496094 1.25 -22.632812 1.25 -13.957031 C 1.25 -5.316406 7.621094 0.585938 16.457031 0.585938 Z M 16.457031 0.585938 "
           id="path3" />
      </g>
    </g>
  </g>
  <g
     fill="#112442"
     fill-opacity="1"
     id="g8">
    <g
       transform="translate(96.70724, 248.240549)"
       id="g7">
      <g
         id="g6">
        <path
           d="M 1.914062 0 L 8.601562 0 L 8.601562 -11.179688 C 8.601562 -13.40625 10.085938 -15.011719 12.039062 -15.011719 C 14.035156 -15.011719 15.324219 -13.40625 15.324219 -11.101562 L 15.324219 0 L 22.007812 0 L 22.007812 -12.46875 C 22.007812 -17.199219 19.113281 -20.601562 14.933594 -20.601562 C 12.351562 -20.601562 10.476562 -19.347656 8.953125 -16.847656 L 8.601562 -16.847656 L 8.601562 -29.082031 L 1.914062 -29.082031 Z M 1.914062 0 "
           id="path5" />
      </g>
    </g>
  </g>
  <g
     fill="#112442"
     fill-opacity="1"
     id="g11">
    <g
       transform="translate(120.351911, 248.240549)"
       id="g10">
      <g
         id="g9">
        <path
           d="M 12.195312 0.507812 C 17.316406 0.507812 21.578125 -2.03125 22.554688 -5.902344 L 16.691406 -6.722656 C 16.105469 -5.160156 14.542969 -4.027344 12.546875 -4.027344 C 9.96875 -4.027344 8.207031 -5.707031 7.816406 -8.246094 L 23.179688 -8.246094 C 23.21875 -8.5625 23.257812 -9.5 23.257812 -9.96875 C 23.257812 -16.457031 18.917969 -20.601562 12.273438 -20.601562 C 5.628906 -20.601562 0.898438 -16.496094 0.898438 -10.085938 C 0.898438 -3.636719 5.511719 0.507812 12.195312 0.507812 Z M 7.738281 -11.726562 C 8.089844 -14.347656 9.734375 -16.066406 12.15625 -16.066406 C 14.621094 -16.066406 16.417969 -14.113281 16.535156 -11.726562 Z M 7.738281 -11.726562 "
           id="path8" />
      </g>
    </g>
  </g>
  <g
     fill="#112442"
     fill-opacity="1"
     id="g14">
    <g
       transform="translate(144.465572, 248.240549)"
       id="g13">
      <g
         id="g12">
        <path
           d="M 12.117188 0.507812 C 17.746094 0.507812 21.851562 -2.382812 22.554688 -7.308594 L 16.378906 -8.089844 C 15.949219 -6.175781 14.191406 -4.847656 12.195312 -4.847656 C 9.539062 -4.847656 7.621094 -7.035156 7.621094 -10.046875 C 7.621094 -13.054688 9.539062 -15.285156 12.195312 -15.285156 C 14.152344 -15.285156 15.949219 -13.875 16.378906 -11.921875 L 22.554688 -12.703125 C 21.890625 -17.667969 17.746094 -20.601562 12.117188 -20.601562 C 5.394531 -20.601562 0.9375 -16.535156 0.898438 -10.046875 C 0.9375 -3.636719 5.511719 0.507812 12.117188 0.507812 Z M 12.117188 0.507812 "
           id="path11" />
      </g>
    </g>
  </g>
  <g
     fill="#112442"
     fill-opacity="1"
     id="g17">
    <g
       transform="translate(167.914835, 248.240549)"
       id="g16">
      <g
         id="g15">
        <path
           d="M 1.875 0 L 8.5625 0 L 8.5625 -8.207031 L 8.914062 -8.207031 L 14.777344 0 L 22.671875 0 L 14.699219 -10.4375 L 22.515625 -20.09375 L 14.660156 -20.09375 L 8.914062 -12.625 L 8.5625 -12.625 L 8.5625 -29.082031 L 1.875 -29.082031 Z M 1.875 0 "
           id="path14" />
      </g>
    </g>
  </g>
  <g
     fill="#112442"
     fill-opacity="1"
     id="g20">
    <g
       transform="translate(190.738782, 248.240549)"
       id="g19">
      <g
         id="g18">
        <path
           d="M 10.554688 0.664062 C 16.691406 0.664062 20.71875 -2.03125 20.71875 -6.410156 C 20.71875 -11.179688 16.144531 -11.921875 12.46875 -12.390625 C 9.695312 -12.703125 7.230469 -12.898438 7.230469 -14.738281 C 7.230469 -15.949219 8.484375 -16.769531 10.359375 -16.769531 C 12.46875 -16.769531 13.957031 -15.675781 13.957031 -14.035156 L 19.859375 -14.035156 C 19.898438 -18.136719 15.792969 -20.757812 10.320312 -20.757812 C 4.730469 -20.757812 1.054688 -18.097656 1.054688 -14.074219 C 1.054688 -8.5625 6.214844 -8.285156 9.773438 -7.933594 C 12.078125 -7.660156 14.035156 -7.464844 14.035156 -5.550781 C 14.035156 -4.222656 12.585938 -3.324219 10.671875 -3.324219 C 8.207031 -3.324219 6.527344 -4.613281 6.527344 -6.449219 L 0.898438 -6.449219 C 0.898438 -2.148438 4.691406 0.664062 10.554688 0.664062 Z M 10.554688 0.664062 "
           id="path17" />
      </g>
    </g>
  </g>
  <g
     fill="#112442"
     fill-opacity="1"
     id="g23">
    <g
       transform="translate(212.351189, 248.240549)"
       id="g22">
      <g
         id="g21">
        <path
           d="M 10.046875 0.429688 C 11.296875 0.429688 13.054688 0.195312 14.308594 -0.273438 L 14.308594 -4.886719 C 13.679688 -4.730469 12.859375 -4.652344 12.273438 -4.652344 C 10.789062 -4.652344 9.8125 -5.707031 9.8125 -7.347656 L 9.8125 -15.324219 L 14.191406 -15.324219 L 14.191406 -20.09375 L 9.8125 -20.09375 L 9.8125 -26.269531 L 4.496094 -26.269531 L 3.363281 -20.09375 L 0.429688 -20.09375 L 0.429688 -15.324219 L 3.089844 -15.324219 L 3.089844 -7.035156 C 3.089844 -2.578125 5.863281 0.429688 10.046875 0.429688 Z M 10.046875 0.429688 "
           id="path20" />
      </g>
    </g>
  </g>
  <g
     fill="#112442"
     fill-opacity="1"
     id="g26">
    <g
       transform="translate(227.397799, 248.240549)"
       id="g25">
      <g
         id="g24">
        <path
           d="M 7.347656 0.507812 C 10.125 0.507812 12.742188 -0.546875 13.917969 -2.65625 L 14.269531 -2.65625 L 14.269531 0 L 20.992188 0 L 20.992188 -13.132812 C 20.992188 -17.589844 17.121094 -20.523438 11.375 -20.523438 C 5.550781 -20.523438 1.71875 -17.589844 1.71875 -13.171875 L 8.128906 -13.171875 C 8.128906 -15.128906 9.5 -16.378906 11.296875 -16.378906 C 13.09375 -16.378906 14.269531 -15.128906 14.269531 -13.40625 L 14.269531 -12.390625 L 10.4375 -11.804688 C 3.871094 -10.828125 0.820312 -8.875 0.820312 -5.042969 C 0.820312 -1.484375 3.519531 0.507812 7.347656 0.507812 Z M 10.085938 -3.480469 C 8.324219 -3.480469 7.269531 -4.378906 7.269531 -5.707031 C 7.269531 -7.074219 8.285156 -7.933594 10.789062 -8.367188 L 14.269531 -8.953125 L 14.269531 -7.582031 C 14.269531 -5.238281 12.585938 -3.480469 10.085938 -3.480469 Z M 10.085938 -3.480469 "
           id="path23" />
      </g>
    </g>
  </g>
  <g
     fill="#112442"
     fill-opacity="1"
     id="g29">
    <g
       transform="translate(250.026338, 248.240549)"
       id="g28">
      <g
         id="g27">
        <path
           d="M 10.046875 0.429688 C 11.296875 0.429688 13.054688 0.195312 14.308594 -0.273438 L 14.308594 -4.886719 C 13.679688 -4.730469 12.859375 -4.652344 12.273438 -4.652344 C 10.789062 -4.652344 9.8125 -5.707031 9.8125 -7.347656 L 9.8125 -15.324219 L 14.191406 -15.324219 L 14.191406 -20.09375 L 9.8125 -20.09375 L 9.8125 -26.269531 L 4.496094 -26.269531 L 3.363281 -20.09375 L 0.429688 -20.09375 L 0.429688 -15.324219 L 3.089844 -15.324219 L 3.089844 -7.035156 C 3.089844 -2.578125 5.863281 0.429688 10.046875 0.429688 Z M 10.046875 0.429688 "
           id="path26" />
      </g>
    </g>
  </g>
  <g
     fill="#112442"
     fill-opacity="1"
     id="g32">
    <g
       transform="translate(265.07296, 248.240549)"
       id="g31">
      <g
         id="g30">
        <path
           d="M 8.71875 0.507812 C 11.296875 0.507812 13.171875 -0.742188 14.699219 -3.285156 L 15.050781 -3.285156 L 15.050781 0 L 21.773438 0 L 21.773438 -20.09375 L 15.050781 -20.09375 L 15.050781 -8.914062 C 15.050781 -6.683594 13.5625 -5.082031 11.609375 -5.082031 C 9.617188 -5.082031 8.367188 -6.722656 8.367188 -8.992188 L 8.367188 -20.09375 L 1.640625 -20.09375 L 1.640625 -7.660156 C 1.640625 -2.933594 4.535156 0.507812 8.71875 0.507812 Z M 8.71875 0.507812 "
           id="path29" />
      </g>
    </g>
  </g>
  <g
     fill="#112442"
     fill-opacity="1"
     id="g35">
    <g
       transform="translate(288.717642, 248.240549)"
       id="g34">
      <g
         id="g33">
        <path
           d="M 10.554688 0.664062 C 16.691406 0.664062 20.71875 -2.03125 20.71875 -6.410156 C 20.71875 -11.179688 16.144531 -11.921875 12.46875 -12.390625 C 9.695312 -12.703125 7.230469 -12.898438 7.230469 -14.738281 C 7.230469 -15.949219 8.484375 -16.769531 10.359375 -16.769531 C 12.46875 -16.769531 13.957031 -15.675781 13.957031 -14.035156 L 19.859375 -14.035156 C 19.898438 -18.136719 15.792969 -20.757812 10.320312 -20.757812 C 4.730469 -20.757812 1.054688 -18.097656 1.054688 -14.074219 C 1.054688 -8.5625 6.214844 -8.285156 9.773438 -7.933594 C 12.078125 -7.660156 14.035156 -7.464844 14.035156 -5.550781 C 14.035156 -4.222656 12.585938 -3.324219 10.671875 -3.324219 C 8.207031 -3.324219 6.527344 -4.613281 6.527344 -6.449219 L 0.898438 -6.449219 C 0.898438 -2.148438 4.691406 0.664062 10.554688 0.664062 Z M 10.554688 0.664062 "
           id="path32" />
      </g>
    </g>
  </g>
  <g
     fill="#112442"
     fill-opacity="1"
     id="g38">
    <g
       transform="translate(247.526736, 273.596466)"
       id="g37">
      <g
         id="g36">
        <path
           d="M 6.382812 0.265625 C 9.972656 0.265625 12.320312 -2.269531 12.023438 -5.953125 L 5.371094 -5.953125 L 5.371094 -4.320312 L 9.277344 -4.320312 C 9.15625 -3.011719 7.984375 -2.078125 6.484375 -2.078125 C 4.660156 -2.078125 3.339844 -3.429688 3.339844 -5.296875 C 3.339844 -7.183594 4.617188 -8.476562 6.382812 -8.476562 C 7.585938 -8.476562 8.652344 -7.777344 8.90625 -6.796875 L 11.546875 -7.257812 C 11.101562 -9.320312 8.964844 -10.820312 6.382812 -10.820312 C 2.953125 -10.820312 0.476562 -8.59375 0.476562 -5.296875 C 0.476562 -2.019531 2.953125 0.265625 6.382812 0.265625 Z M 6.382812 0.265625 "
           id="path35" />
      </g>
    </g>
  </g>
  <g
     fill="#112442"
     fill-opacity="1"
     id="g41">
    <g
       transform="translate(260.107715, 273.596466)"
       id="g40">
      <g
         id="g39">
        <path
           d="M 6.382812 0.222656 C 9.898438 0.222656 12.304688 -1.929688 12.304688 -5.296875 C 12.304688 -8.667969 9.898438 -10.820312 6.382812 -10.820312 C 2.863281 -10.820312 0.476562 -8.667969 0.476562 -5.296875 C 0.476562 -1.929688 2.863281 0.222656 6.382812 0.222656 Z M 6.382812 -2.121094 C 4.585938 -2.121094 3.339844 -3.398438 3.339844 -5.296875 C 3.339844 -7.199219 4.585938 -8.476562 6.382812 -8.476562 C 8.179688 -8.476562 9.425781 -7.199219 9.425781 -5.296875 C 9.425781 -3.398438 8.179688 -2.121094 6.382812 -2.121094 Z M 6.382812 -2.121094 "
           id="path38" />
      </g>
    </g>
  </g>
  <g
     fill="#112442"
     fill-opacity="1"
     id="g44">
    <g
       transform="translate(272.940898, 273.596466)"
       id="g43">
      <g
         id="g42">
        <path
           d="M 3.355469 0 L 7.820312 0 L 11.074219 -10.597656 L 8.105469 -10.597656 L 5.65625 -2.136719 L 5.519531 -2.136719 L 3.058594 -10.597656 L 0.117188 -10.597656 Z M 3.355469 0 "
           id="path41" />
      </g>
    </g>
  </g>
  <g
     fill="#112442"
     fill-opacity="1"
     id="g47">
    <g
       transform="translate(284.171794, 273.596466)"
       id="g46">
      <g
         id="g45">
        <path
           d="M 1.78125 0.148438 C 2.628906 0.148438 3.222656 -0.429688 3.222656 -1.246094 C 3.222656 -2.046875 2.628906 -2.628906 1.78125 -2.628906 C 0.949219 -2.628906 0.339844 -2.046875 0.339844 -1.246094 C 0.339844 -0.429688 0.949219 0.148438 1.78125 0.148438 Z M 1.78125 0.148438 "
           id="path44" />
      </g>
    </g>
  </g>
  <g
     fill="#112442"
     fill-opacity="1"
     id="g50">
    <g
       transform="translate(287.79182, 273.596466)"
       id="g49">
      <g
         id="g48">
        <path
           d="M 0.832031 0 L 6.441406 0 C 8.890625 0 10.390625 -1.023438 10.390625 -2.835938 C 10.390625 -4.140625 9.558594 -5.0625 8.429688 -5.359375 L 8.429688 -5.492188 C 9.378906 -5.789062 10.09375 -6.589844 10.09375 -7.734375 C 10.09375 -9.46875 8.652344 -10.597656 6.203125 -10.597656 L 0.832031 -10.597656 Z M 3.695312 -6.277344 L 3.695312 -8.5625 L 5.65625 -8.5625 C 6.515625 -8.5625 7.125 -8.105469 7.125 -7.421875 C 7.125 -6.738281 6.515625 -6.277344 5.65625 -6.277344 Z M 3.695312 -2.035156 L 3.695312 -4.558594 L 5.816406 -4.558594 C 6.738281 -4.558594 7.421875 -4.023438 7.421875 -3.296875 C 7.421875 -2.566406 6.738281 -2.035156 5.816406 -2.035156 Z M 3.695312 -2.035156 "
           id="path47" />
      </g>
    </g>
  </g>
  <g
     fill="#112442"
     fill-opacity="1"
     id="g53">
    <g
       transform="translate(298.651817, 273.596466)"
       id="g52">
      <g
         id="g51">
        <path
           d="M 0.832031 0 L 3.710938 0 L 3.710938 -3.652344 L 4.703125 -3.652344 L 7.449219 0 L 10.613281 0 L 7.421875 -3.859375 L 7.644531 -3.890625 C 9.246094 -4.140625 10.375 -5.34375 10.375 -7.066406 C 10.375 -9.1875 8.699219 -10.597656 6.113281 -10.597656 L 0.832031 -10.597656 Z M 3.710938 -5.476562 L 3.710938 -8.5625 L 5.566406 -8.5625 C 6.695312 -8.5625 7.511719 -8 7.511719 -7.019531 C 7.511719 -6.054688 6.695312 -5.476562 5.566406 -5.476562 Z M 3.710938 -5.476562 "
           id="path50" />
      </g>
    </g>
  </g>
  <path
     fill="#639ac6"
     d="M 246.261719 154.929688 C 246.261719 157.300781 244.339844 159.21875 241.96875 159.21875 L 223.976562 159.21875 C 221.605469 159.21875 219.683594 157.300781 219.683594 154.929688 C 219.683594 152.566406 221.605469 150.644531 223.976562 150.644531 L 241.96875 150.644531 C 244.339844 150.644531 246.261719 152.566406 246.261719 154.929688 "
     fill-opacity="1"
     fill-rule="nonzero"
     id="path53" />
  <path
     fill="#639ac6"
     d="M 208.761719 165.757812 L 216.988281 165.757812 C 219.359375 165.757812 221.28125 167.675781 221.28125 170.046875 C 221.28125 172.414062 219.359375 174.335938 216.988281 174.335938 L 208.761719 174.335938 C 206.394531 174.335938 204.472656 172.414062 204.472656 170.046875 C 204.472656 167.675781 206.394531 165.757812 208.761719 165.757812 "
     fill-opacity="1"
     fill-rule="nonzero"
     id="path54" />
  <g
     clip-path="url(#367b8939c7)"
     id="g55">
    <path
       fill="#2c4874"
       d="M 173.324219 194.785156 L 142.328125 194.785156 L 114.609375 142.476562 L 145.605469 142.476562 L 173.324219 194.785156 "
       fill-opacity="1"
       fill-rule="nonzero"
       id="path55" />
  </g>
  <g
     clip-path="url(#104f319328)"
     id="g56">
    <path
       fill="#639ac6"
       d="M 260.699219 139.738281 C 260.742188 142.144531 258.804688 144.105469 256.40625 144.105469 L 202.152344 144.105469 C 200.941406 144.105469 199.828125 144.773438 199.261719 145.84375 C 198.109375 148.023438 199.6875 150.644531 202.152344 150.644531 L 211.582031 150.644531 C 213.945312 150.644531 215.972656 152.488281 216.015625 154.851562 C 216.058594 157.257812 214.121094 159.21875 211.722656 159.21875 L 194.140625 159.21875 C 192.929688 159.21875 191.820312 159.890625 191.253906 160.960938 C 190.097656 163.136719 191.675781 165.757812 194.140625 165.757812 L 198.078125 165.757812 C 200.351562 165.757812 202.328125 167.472656 202.488281 169.738281 C 202.578125 171.042969 202.085938 172.238281 201.242188 173.082031 C 200.464844 173.855469 199.390625 174.335938 198.210938 174.335938 L 186.132812 174.335938 C 184.921875 174.335938 183.8125 175.003906 183.246094 176.074219 L 173.328125 194.785156 L 142.328125 194.785156 L 157.832031 165.535156 L 162.066406 157.542969 L 170.289062 142.015625 L 192.808594 99.527344 L 223.804688 99.527344 L 207.269531 130.734375 C 206.117188 132.910156 207.695312 135.53125 210.15625 135.53125 L 256.265625 135.53125 C 258.628906 135.53125 260.652344 137.375 260.699219 139.738281 "
       fill-opacity="1"
       fill-rule="nonzero"
       id="path56" />
  </g>
</svg>
